<svg xmlns="http://www.w3.org/2000/svg" viewBox="0 0 32 32" width="32" height="32">
  <!-- Simple AK favicon - simplified version of the logo -->
  <!-- Letter A -->
  <rect x="2" y="4" width="4" height="4" fill="#000"/>
  <rect x="6" y="4" width="4" height="4" fill="#000"/>
  <rect x="10" y="4" width="4" height="4" fill="#000"/>
  <rect x="2" y="8" width="4" height="4" fill="#000"/>
  <rect x="10" y="8" width="4" height="4" fill="#000"/>
  <rect x="2" y="12" width="4" height="4" fill="#000"/>
  <rect x="6" y="12" width="4" height="4" fill="#000"/>
  <rect x="10" y="12" width="4" height="4" fill="#000"/>
  <rect x="2" y="16" width="4" height="4" fill="#000"/>
  <rect x="10" y="16" width="4" height="4" fill="#000"/>
  <rect x="2" y="20" width="4" height="4" fill="#000"/>
  <rect x="10" y="20" width="4" height="4" fill="#000"/>
  <rect x="2" y="24" width="4" height="4" fill="#000"/>
  <rect x="10" y="24" width="4" height="4" fill="#000"/>
  
  <!-- Letter K -->
  <rect x="18" y="4" width="4" height="4" fill="#000"/>
  <rect x="26" y="4" width="4" height="4" fill="#000"/>
  <rect x="18" y="8" width="4" height="4" fill="#000"/>
  <rect x="22" y="8" width="4" height="4" fill="#000"/>
  <rect x="18" y="12" width="4" height="4" fill="#000"/>
  <rect x="18" y="16" width="4" height="4" fill="#000"/>
  <rect x="22" y="16" width="4" height="4" fill="#000"/>
  <rect x="18" y="20" width="4" height="4" fill="#000"/>
  <rect x="26" y="20" width="4" height="4" fill="#000"/>
  <rect x="18" y="24" width="4" height="4" fill="#000"/>
  <rect x="26" y="24" width="4" height="4" fill="#000"/>
</svg> 